# xmcd
#
# Track frame offsets:
#	150
#	9452
#	19904
#	30265
#	42953
#	54200
#	65600
#	75929
#	87146
#	100371
#	113271
#	124763
#	136468
#	151709
#	160779
#	173713
#	184607
#	195089
#	205958
#	218735
#	232000
#	245266
#	255597
#	270264
#	284592
#
# Disc length: 3952 seconds
#
# Revision: 1
# Processed by: cddbd v1.5.1PL0 Copyright (c) Steve Scherf et al.
# Submitted via: audiograbber 1.83.01
#
DISCID=350f6e19
DTITLE=Dick Curless - A Tombstone every Mile  Vol.4
DYEAR=1900
DGENRE=
TTITLE0=You, you, only you   and Kay Adams
TTITLE1=Terrible tangled web   and Kay Adams
TTITLE2=A Devil like me needs, an Angel like you   and Kay Adams
TTITLE3=No Fool like an old Fool   and Kay Adams
TTITLE4=Old standby   and Kay Adams
TTITLE5=Too late   and Kay Adams
TTITLE6=I can't stop my loving you   and Kay Adams
TTITLE7=For ever and ever   and Kay Adams
TTITLE8=Congratulations, you're absolutly right   and Kay Adams
TTITLE9=Heart talk  2
TTITLE10=Highwayman
TTITLE11=The Baron
TTITLE12=Memories, an old Picture and a King
TTITLE13=A good Job hunting and fishing
TTITLE14=How do i say goodbye
TTITLE15=All of me belongs to you
TTITLE16=My side of the Night
TTITLE17=The Game of Love and Poker
TTITLE18=On the outsite looking in
TTITLE19=Hello Honey
TTITLE20=Nobody
TTITLE21=Hobo
TTITLE22=Rears of St. Ann
TTITLE23=I went bad for a pretty Girl
TTITLE24=Tornado Tillie
EXTD=
EXTT0=
EXTT1=
EXTT2=
EXTT3=
EXTT4=
EXTT5=
EXTT6=
EXTT7=
EXTT8=
EXTT9=
EXTT10=
EXTT11=
EXTT12=
EXTT13=
EXTT14=
EXTT15=
EXTT16=
EXTT17=
EXTT18=
EXTT19=
EXTT20=
EXTT21=
EXTT22=
EXTT23=
EXTT24=
PLAYORDER=
